{"accessors" : [{"bufferView" : 0, "byteOffset" : 0, "componentType" : 5125, "count" : 1364232, "type" : "SCALAR", "max" : [1364231], "min" : [0]}, {"bufferView" : 1, "byteOffset" : 0, "componentType" : 5126, "count" : 1364232, "type" : "VEC3", "max" : [32741544, 32741548, 32741552], "min" : [-0.044674310833215714, 3.9553256034851074, 7.955325603485107]}, {"bufferView" : 1, "byteOffset" : 12, "componentType" : 5126, "count" : 1364232, "type" : "VEC3", "max" : [32741556, 32741560, 32741564], "min" : [11.955326080322266, 15.955326080322266, 19.955326080322266]}], "asset" : {"generator" : "Aspose.3D 20.8", "version" : "2.0"}, "buffers" : [{"uri" : "buffer.bin", "byteLength" : 38198504}], "bufferViews" : [{"buffer" : 0, "byteOffset" : 0, "byteLength" : 5456928, "target" : 34963}, {"buffer" : 0, "byteOffset" : 5456932, "byteLength" : 32741568, "byteStride" : 24, "target" : 34962}], "meshes" : [{"primitives" : [{"attributes" : {"POSITION" : 1, "NORMAL" : 2}, "indices" : 0, "mode" : 4}]}], "nodes" : [{"mesh" : 0, "name" : ""}], "scene" : 0, "scenes" : [{"nodes" : [0]}]}